<svg xmlns="http://www.w3.org/2000/svg" viewBox="0 0 512 512" width="512" height="512">
  <defs>
    <linearGradient id="bg" x1="0%" y1="0%" x2="100%" y2="100%">
      <stop offset="0%" style="stop-color:#4F46E5;stop-opacity:1" />
      <stop offset="100%" style="stop-color:#7C3AED;stop-opacity:1" />
    </linearGradient>
    <linearGradient id="accent" x1="0%" y1="0%" x2="100%" y2="0%">
      <stop offset="0%" style="stop-color:#818CF8;stop-opacity:1" />
      <stop offset="100%" style="stop-color:#A78BFA;stop-opacity:1" />
    </linearGradient>
  </defs>
  
  <!-- Background circle -->
  <circle cx="256" cy="256" r="240" fill="url(#bg)"/>
  
  <!-- Inner circle glow -->
  <circle cx="256" cy="256" r="200" fill="none" stroke="url(#accent)" stroke-width="2" opacity="0.3"/>
  
  <!-- Brain / AI icon - left hemisphere -->
  <path d="M220 340 C180 340 160 320 155 290 C150 260 165 235 185 225 C195 220 205 215 210 205" 
        fill="none" stroke="white" stroke-width="5" stroke-linecap="round" opacity="0.9"/>
  <path d="M220 340 C230 348 245 350 260 348 C275 345 285 338 290 325" 
        fill="none" stroke="white" stroke-width="5" stroke-linecap="round" opacity="0.9"/>
  <path d="M210 205 C220 195 235 190 250 188 C260 187 270 188 278 192" 
        fill="none" stroke="white" stroke-width="5" stroke-linecap="round" opacity="0.9"/>
  
  <!-- Neural network nodes -->
  <circle cx="185" cy="225" r="6" fill="#A78BFA"/>
  <circle cx="210" cy="205" r="6" fill="#C4B5FD"/>
  <circle cx="245" cy="195" r="6" fill="#A78BFA"/>
  <circle cx="280" cy="200" r="6" fill="#818CF8"/>
  <circle cx="305" cy="220" r="6" fill="#C4B5FD"/>
  <circle cx="310" cy="260" r="6" fill="#A78BFA"/>
  <circle cx="295" cy="300" r="6" fill="#818CF8"/>
  <circle cx="260" cy="330" r="6" fill="#C4B5FD"/>
  <circle cx="220" cy="335" r="6" fill="#A78BFA"/>
  
  <!-- Book / Academic element below -->
  <path d="M170 390 L170 360 C170 355 175 352 180 352 L332 352 C337 352 342 355 342 360 L342 390 C342 395 337 398 332 398 L180 398 C175 398 170 395 170 390 Z" 
        fill="white" opacity="0.25"/>
  <line x1="256" y1="352" x2="256" y2="398" stroke="white" stroke-width="2" opacity="0.5"/>
  
  <!-- Text: AI -->
  <text x="256" y="280" text-anchor="middle" font-family="Arial, sans-serif" font-size="72" font-weight="900" fill="white" letter-spacing="2">
    AI
  </text>
  
  <!-- Subtle checkmark -->
  <path d="M230 260 L250 278 L285 240" fill="none" stroke="#A78BFA" stroke-width="4" stroke-linecap="round" stroke-linejoin="round" opacity="0"/>
</svg>
